<svg width="500" height="80" viewBox="0 0 500 80" fill="none" xmlns="http://www.w3.org/2000/svg">
<g clip-path="url(#clip0_10_488)">
<path fill-rule="evenodd" clip-rule="evenodd" d="M323.188 60.8008H333.667V19.1608H323.153V13.4318H336.457C338.945 13.4318 340.377 14.7135 340.377 17.2013V60.8008H350.856V66.5304H323.188V60.8008ZM106.611 13.4318H122.065C136.239 13.4318 144.23 17.5024 144.23 30.9976C144.23 44.4928 136.239 48.6384 122.065 48.6384H113.472V66.5809H106.611V13.4318ZM122.292 42.7579C131.112 42.7579 137.445 40.9492 137.445 30.9976C137.445 21.0459 131.112 19.3123 122.292 19.3123H113.472V42.7579H122.292ZM167.678 28.359C179.589 28.359 187.505 36.7272 187.505 47.8092C187.505 58.8911 179.589 67.3351 167.678 67.3351C155.767 67.3351 147.775 58.9668 147.775 47.8092C147.775 36.6515 155.691 28.359 167.678 28.359ZM167.678 61.6054C176.197 61.6054 180.871 55.4239 180.871 47.8092C180.871 40.1944 176.197 34.0886 167.678 34.0886C159.159 34.0886 154.409 40.2708 154.409 47.8092C154.409 55.3475 159.083 61.6054 167.678 61.6054ZM204.889 59.4949L196.219 29.113H189.888L200.065 66.5814H211.75L220.344 31.5256L229.014 66.5814H240.322L250.725 29.113H244.317L235.723 59.4949L234.742 63.3395L226.073 29.113H214.539L205.945 63.6411L204.889 59.4949ZM271.991 28.359C283.073 28.359 290.311 35.0687 290.311 46.6789V49.0915H260.532C260.759 56.4046 264.603 61.9834 272.368 61.9834C278.777 61.9834 282.546 58.6658 283.827 53.4643H290.462C288.954 60.4 283.978 67.3357 272.444 67.3357C260.231 67.3357 254.049 58.4392 254.049 47.3579C254.049 35.2202 261.287 28.3596 271.992 28.3596L271.991 28.359ZM283.752 44.3419C283.299 37.5571 278.701 33.6368 271.991 33.6368C265.809 33.6368 261.135 37.5565 260.607 44.3419H283.752ZM323.152 29.113H302.522C298.978 29.113 297.244 30.7715 297.244 34.3144V66.5808H303.954V34.8426H323.152V29.113ZM392.801 47.8092C392.801 36.7272 384.885 28.359 372.974 28.359C360.987 28.359 353.071 36.6515 353.071 47.8092C353.071 58.9668 361.063 67.3351 372.974 67.3351C384.885 67.3351 392.801 58.8911 392.801 47.8092ZM386.167 47.8092C386.167 55.4239 381.493 61.6054 372.974 61.6054C364.379 61.6054 359.705 55.3475 359.705 47.8092C359.705 40.2708 364.455 34.0886 372.974 34.0886C381.493 34.0886 386.167 40.1944 386.167 47.8092ZM417.299 28.359C429.21 28.359 437.126 36.7272 437.126 47.8092C437.126 58.8911 429.21 67.3351 417.299 67.3351C405.387 67.3351 397.396 58.9668 397.396 47.8092C397.396 36.6515 405.312 28.359 417.299 28.359ZM417.299 61.6054C425.818 61.6054 430.491 55.4239 430.491 47.8092C430.491 40.1944 425.818 34.0886 417.299 34.0886C408.779 34.0886 404.03 40.2708 404.03 47.8092C404.03 55.3475 408.704 61.6054 417.299 61.6054ZM448.434 29.1131H441.724V66.5809H448.433V51.0511C448.433 41.0243 452.128 34.0886 460.044 34.0886C465.622 34.0886 467.507 38.1592 467.507 45.3965V66.5809H474.217V51.0511C474.217 41.0243 477.911 34.0886 485.827 34.0886C491.406 34.0886 493.291 38.1592 493.291 45.3965V66.5809H500V44.5679C500 34.5411 495.929 28.359 487.41 28.359C479.796 28.359 475.273 32.8826 473.237 38.4614C471.955 32.2042 468.337 28.359 462.004 28.359C454.616 28.359 450.319 32.9583 448.434 38.5372V29.1131Z" fill="black"/>
<path fill-rule="evenodd" clip-rule="evenodd" d="M68.0689 0C68.0689 15.5966 55.4406 28.2397 39.8624 28.2397C32.1389 28.2397 25.1398 25.1307 20.0456 20.0947C25.0908 25.1969 28.2065 32.2151 28.2065 39.9621C28.2065 47.7594 25.0489 54.8193 19.9443 59.9299L0 39.9621V11.7224C7.7757 11.7224 14.8165 14.8723 19.9187 19.9672L39.8624 0H68.0689ZM59.908 59.8609C65.0103 64.956 72.0512 68.1061 79.8271 68.1061V39.8664L59.8828 19.8986C54.7782 25.0092 51.6206 32.0691 51.6206 39.8664C51.6206 47.5887 54.7165 54.587 59.7335 59.6851C54.6434 54.6772 47.6641 51.5878 39.965 51.5878C24.3868 51.5878 11.7585 64.2309 11.7585 79.8275H39.965L59.908 59.8609Z" fill="#55E794"/>
</g>
<defs>
<clipPath id="clip0_10_488">
<rect width="500" height="80" fill="white"/>
</clipPath>
</defs>
</svg>
